<mxfile host="65bd71144e">
    <diagram id="pIaEtrtLPv3HG8r1JEND" name="Page-1">
        <mxGraphModel dx="520" dy="429" grid="1" gridSize="10" guides="1" tooltips="1" connect="1" arrows="1" fold="1" page="1" pageScale="1" pageWidth="850" pageHeight="1100" math="0" shadow="0">
            <root>
                <mxCell id="0"/>
                <mxCell id="1" parent="0"/>
                <mxCell id="2" value="" style="rounded=0;whiteSpace=wrap;html=1;" parent="1" vertex="1">
                    <mxGeometry x="80" y="80" width="400" height="300" as="geometry"/>
                </mxCell>
                <mxCell id="3" value="Fancy boarder n" style="rounded=0;whiteSpace=wrap;html=1;" parent="1" vertex="1">
                    <mxGeometry x="80" y="80" width="400" height="40" as="geometry"/>
                </mxCell>
                <mxCell id="6" value="Calculate" style="labelPosition=center;verticalLabelPosition=middle;align=center;html=1;shape=mxgraph.basic.button;dx=10;" parent="1" vertex="1">
                    <mxGeometry x="100" y="290" width="100" height="40" as="geometry"/>
                </mxCell>
                <mxCell id="7" value="Enter the following" style="text;html=1;strokeColor=none;fillColor=none;align=center;verticalAlign=middle;whiteSpace=wrap;rounded=0;" vertex="1" parent="1">
                    <mxGeometry x="90" y="160" width="120" height="30" as="geometry"/>
                </mxCell>
                <mxCell id="8" value="What type of Triangle?" style="text;strokeColor=none;fillColor=none;html=1;fontSize=24;fontStyle=1;verticalAlign=middle;align=center;" vertex="1" parent="1">
                    <mxGeometry x="170" y="130" width="100" height="40" as="geometry"/>
                </mxCell>
                <mxCell id="12" value="" style="html=1;shadow=0;dashed=0;shape=mxgraph.bootstrap.rrect;rSize=5;strokeColor=#CED4DA;strokeWidth=1;fillColor=#E9ECEF;fontColor=#505050;whiteSpace=wrap;align=left;verticalAlign=middle;spacingLeft=10;fontSize=14;" vertex="1" parent="1">
                    <mxGeometry x="90" y="210" width="140" height="10" as="geometry"/>
                </mxCell>
                <mxCell id="13" value="" style="html=1;shadow=0;dashed=0;shape=mxgraph.bootstrap.rrect;rSize=5;strokeColor=#CED4DA;strokeWidth=1;fillColor=#E9ECEF;fontColor=#505050;whiteSpace=wrap;align=left;verticalAlign=middle;spacingLeft=10;fontSize=14;" vertex="1" parent="1">
                    <mxGeometry x="90" y="240" width="140" height="10" as="geometry"/>
                </mxCell>
                <mxCell id="14" value="" style="html=1;shadow=0;dashed=0;shape=mxgraph.bootstrap.rrect;rSize=5;strokeColor=#CED4DA;strokeWidth=1;fillColor=#E9ECEF;fontColor=#505050;whiteSpace=wrap;align=left;verticalAlign=middle;spacingLeft=10;fontSize=14;" vertex="1" parent="1">
                    <mxGeometry x="90" y="270" width="140" height="10" as="geometry"/>
                </mxCell>
                <mxCell id="15" value="Side A" style="text;html=1;strokeColor=none;fillColor=none;align=center;verticalAlign=middle;whiteSpace=wrap;rounded=0;" vertex="1" parent="1">
                    <mxGeometry x="80" y="190" width="60" height="30" as="geometry"/>
                </mxCell>
                <mxCell id="16" value="Side C" style="text;html=1;strokeColor=none;fillColor=none;align=center;verticalAlign=middle;whiteSpace=wrap;rounded=0;" vertex="1" parent="1">
                    <mxGeometry x="80" y="250" width="60" height="30" as="geometry"/>
                </mxCell>
                <mxCell id="17" value="Side B" style="text;html=1;strokeColor=none;fillColor=none;align=center;verticalAlign=middle;whiteSpace=wrap;rounded=0;" vertex="1" parent="1">
                    <mxGeometry x="80" y="220" width="60" height="30" as="geometry"/>
                </mxCell>
                <mxCell id="18" value="" style="sketch=0;outlineConnect=0;fontColor=#232F3E;gradientColor=none;fillColor=#D45B07;strokeColor=none;dashed=0;verticalLabelPosition=bottom;verticalAlign=top;align=center;html=1;fontSize=12;fontStyle=0;aspect=fixed;pointerEvents=1;shape=mxgraph.aws4.container_registry_image;" vertex="1" parent="1">
                    <mxGeometry x="360" y="195" width="100" height="100" as="geometry"/>
                </mxCell>
            </root>
        </mxGraphModel>
    </diagram>
    <diagram name="Copy of Copy of Copy of Page-1" id="RXqOe7ZcpJBNprb-thcJ">
        <mxGraphModel dx="520" dy="429" grid="1" gridSize="10" guides="1" tooltips="1" connect="1" arrows="1" fold="1" page="1" pageScale="1" pageWidth="850" pageHeight="1100" math="0" shadow="0">
            <root>
                <mxCell id="qS9IHAuqZ8nXdUM_ZfLo-0"/>
                <mxCell id="qS9IHAuqZ8nXdUM_ZfLo-1" parent="qS9IHAuqZ8nXdUM_ZfLo-0"/>
                <mxCell id="qS9IHAuqZ8nXdUM_ZfLo-2" value="" style="rounded=0;whiteSpace=wrap;html=1;" vertex="1" parent="qS9IHAuqZ8nXdUM_ZfLo-1">
                    <mxGeometry x="80" y="80" width="400" height="300" as="geometry"/>
                </mxCell>
                <mxCell id="qS9IHAuqZ8nXdUM_ZfLo-3" value="Fancy boarder" style="rounded=0;whiteSpace=wrap;html=1;" vertex="1" parent="qS9IHAuqZ8nXdUM_ZfLo-1">
                    <mxGeometry x="80" y="80" width="400" height="40" as="geometry"/>
                </mxCell>
                <mxCell id="qS9IHAuqZ8nXdUM_ZfLo-4" value="Calculate" style="labelPosition=center;verticalLabelPosition=middle;align=center;html=1;shape=mxgraph.basic.button;dx=10;" vertex="1" parent="qS9IHAuqZ8nXdUM_ZfLo-1">
                    <mxGeometry x="100" y="290" width="100" height="40" as="geometry"/>
                </mxCell>
                <mxCell id="qS9IHAuqZ8nXdUM_ZfLo-5" value="Enter the following" style="text;html=1;strokeColor=none;fillColor=none;align=center;verticalAlign=middle;whiteSpace=wrap;rounded=0;" vertex="1" parent="qS9IHAuqZ8nXdUM_ZfLo-1">
                    <mxGeometry x="90" y="160" width="120" height="30" as="geometry"/>
                </mxCell>
                <mxCell id="qS9IHAuqZ8nXdUM_ZfLo-6" value="What type of Triangle?" style="text;strokeColor=none;fillColor=none;html=1;fontSize=24;fontStyle=1;verticalAlign=middle;align=center;" vertex="1" parent="qS9IHAuqZ8nXdUM_ZfLo-1">
                    <mxGeometry x="170" y="130" width="100" height="40" as="geometry"/>
                </mxCell>
                <mxCell id="qS9IHAuqZ8nXdUM_ZfLo-7" value="" style="html=1;shadow=0;dashed=0;shape=mxgraph.bootstrap.rrect;rSize=5;strokeColor=#CED4DA;strokeWidth=1;fillColor=#E9ECEF;fontColor=#505050;whiteSpace=wrap;align=left;verticalAlign=middle;spacingLeft=10;fontSize=14;" vertex="1" parent="qS9IHAuqZ8nXdUM_ZfLo-1">
                    <mxGeometry x="90" y="210" width="140" height="10" as="geometry"/>
                </mxCell>
                <mxCell id="qS9IHAuqZ8nXdUM_ZfLo-8" value="" style="html=1;shadow=0;dashed=0;shape=mxgraph.bootstrap.rrect;rSize=5;strokeColor=#CED4DA;strokeWidth=1;fillColor=#E9ECEF;fontColor=#505050;whiteSpace=wrap;align=left;verticalAlign=middle;spacingLeft=10;fontSize=14;" vertex="1" parent="qS9IHAuqZ8nXdUM_ZfLo-1">
                    <mxGeometry x="90" y="240" width="140" height="10" as="geometry"/>
                </mxCell>
                <mxCell id="qS9IHAuqZ8nXdUM_ZfLo-9" value="" style="html=1;shadow=0;dashed=0;shape=mxgraph.bootstrap.rrect;rSize=5;strokeColor=#CED4DA;strokeWidth=1;fillColor=#E9ECEF;fontColor=#505050;whiteSpace=wrap;align=left;verticalAlign=middle;spacingLeft=10;fontSize=14;" vertex="1" parent="qS9IHAuqZ8nXdUM_ZfLo-1">
                    <mxGeometry x="90" y="270" width="140" height="10" as="geometry"/>
                </mxCell>
                <mxCell id="qS9IHAuqZ8nXdUM_ZfLo-10" value="Side A" style="text;html=1;strokeColor=none;fillColor=none;align=center;verticalAlign=middle;whiteSpace=wrap;rounded=0;" vertex="1" parent="qS9IHAuqZ8nXdUM_ZfLo-1">
                    <mxGeometry x="80" y="190" width="60" height="30" as="geometry"/>
                </mxCell>
                <mxCell id="qS9IHAuqZ8nXdUM_ZfLo-11" value="Side C" style="text;html=1;strokeColor=none;fillColor=none;align=center;verticalAlign=middle;whiteSpace=wrap;rounded=0;" vertex="1" parent="qS9IHAuqZ8nXdUM_ZfLo-1">
                    <mxGeometry x="80" y="250" width="60" height="30" as="geometry"/>
                </mxCell>
                <mxCell id="qS9IHAuqZ8nXdUM_ZfLo-12" value="Side B" style="text;html=1;strokeColor=none;fillColor=none;align=center;verticalAlign=middle;whiteSpace=wrap;rounded=0;" vertex="1" parent="qS9IHAuqZ8nXdUM_ZfLo-1">
                    <mxGeometry x="80" y="220" width="60" height="30" as="geometry"/>
                </mxCell>
                <mxCell id="qS9IHAuqZ8nXdUM_ZfLo-13" value="" style="sketch=0;outlineConnect=0;fontColor=#232F3E;gradientColor=none;fillColor=#D45B07;strokeColor=none;dashed=0;verticalLabelPosition=bottom;verticalAlign=top;align=center;html=1;fontSize=12;fontStyle=0;aspect=fixed;pointerEvents=1;shape=mxgraph.aws4.container_registry_image;" vertex="1" parent="qS9IHAuqZ8nXdUM_ZfLo-1">
                    <mxGeometry x="360" y="195" width="100" height="100" as="geometry"/>
                </mxCell>
                <mxCell id="qS9IHAuqZ8nXdUM_ZfLo-14" value="You have an equilateral triangle!" style="text;html=1;strokeColor=none;fillColor=none;align=center;verticalAlign=middle;whiteSpace=wrap;rounded=0;" vertex="1" parent="qS9IHAuqZ8nXdUM_ZfLo-1">
                    <mxGeometry x="90" y="340" width="200" height="30" as="geometry"/>
                </mxCell>
            </root>
        </mxGraphModel>
    </diagram>
    <diagram name="Copy of Copy of Page-1" id="eQgcWYlKnohbsLnfKKlm">
        <mxGraphModel dx="520" dy="429" grid="1" gridSize="10" guides="1" tooltips="1" connect="1" arrows="1" fold="1" page="1" pageScale="1" pageWidth="850" pageHeight="1100" math="0" shadow="0">
            <root>
                <mxCell id="BQiim1YgMy7tAu5QGkeH-0"/>
                <mxCell id="BQiim1YgMy7tAu5QGkeH-1" parent="BQiim1YgMy7tAu5QGkeH-0"/>
                <mxCell id="BQiim1YgMy7tAu5QGkeH-2" value="" style="rounded=0;whiteSpace=wrap;html=1;" vertex="1" parent="BQiim1YgMy7tAu5QGkeH-1">
                    <mxGeometry x="80" y="80" width="400" height="300" as="geometry"/>
                </mxCell>
                <mxCell id="BQiim1YgMy7tAu5QGkeH-3" value="Fancy boarder&amp;nbsp;" style="rounded=0;whiteSpace=wrap;html=1;" vertex="1" parent="BQiim1YgMy7tAu5QGkeH-1">
                    <mxGeometry x="80" y="80" width="400" height="40" as="geometry"/>
                </mxCell>
                <mxCell id="BQiim1YgMy7tAu5QGkeH-4" value="Calculate" style="labelPosition=center;verticalLabelPosition=middle;align=center;html=1;shape=mxgraph.basic.button;dx=10;" vertex="1" parent="BQiim1YgMy7tAu5QGkeH-1">
                    <mxGeometry x="100" y="290" width="100" height="40" as="geometry"/>
                </mxCell>
                <mxCell id="BQiim1YgMy7tAu5QGkeH-5" value="Enter the following" style="text;html=1;strokeColor=none;fillColor=none;align=center;verticalAlign=middle;whiteSpace=wrap;rounded=0;" vertex="1" parent="BQiim1YgMy7tAu5QGkeH-1">
                    <mxGeometry x="90" y="160" width="120" height="30" as="geometry"/>
                </mxCell>
                <mxCell id="BQiim1YgMy7tAu5QGkeH-6" value="What type of Triangle?" style="text;strokeColor=none;fillColor=none;html=1;fontSize=24;fontStyle=1;verticalAlign=middle;align=center;" vertex="1" parent="BQiim1YgMy7tAu5QGkeH-1">
                    <mxGeometry x="170" y="130" width="100" height="40" as="geometry"/>
                </mxCell>
                <mxCell id="BQiim1YgMy7tAu5QGkeH-7" value="" style="html=1;shadow=0;dashed=0;shape=mxgraph.bootstrap.rrect;rSize=5;strokeColor=#CED4DA;strokeWidth=1;fillColor=#E9ECEF;fontColor=#505050;whiteSpace=wrap;align=left;verticalAlign=middle;spacingLeft=10;fontSize=14;" vertex="1" parent="BQiim1YgMy7tAu5QGkeH-1">
                    <mxGeometry x="90" y="210" width="140" height="10" as="geometry"/>
                </mxCell>
                <mxCell id="BQiim1YgMy7tAu5QGkeH-8" value="" style="html=1;shadow=0;dashed=0;shape=mxgraph.bootstrap.rrect;rSize=5;strokeColor=#CED4DA;strokeWidth=1;fillColor=#E9ECEF;fontColor=#505050;whiteSpace=wrap;align=left;verticalAlign=middle;spacingLeft=10;fontSize=14;" vertex="1" parent="BQiim1YgMy7tAu5QGkeH-1">
                    <mxGeometry x="90" y="240" width="140" height="10" as="geometry"/>
                </mxCell>
                <mxCell id="BQiim1YgMy7tAu5QGkeH-9" value="" style="html=1;shadow=0;dashed=0;shape=mxgraph.bootstrap.rrect;rSize=5;strokeColor=#CED4DA;strokeWidth=1;fillColor=#E9ECEF;fontColor=#505050;whiteSpace=wrap;align=left;verticalAlign=middle;spacingLeft=10;fontSize=14;" vertex="1" parent="BQiim1YgMy7tAu5QGkeH-1">
                    <mxGeometry x="90" y="270" width="140" height="10" as="geometry"/>
                </mxCell>
                <mxCell id="BQiim1YgMy7tAu5QGkeH-10" value="Side A" style="text;html=1;strokeColor=none;fillColor=none;align=center;verticalAlign=middle;whiteSpace=wrap;rounded=0;" vertex="1" parent="BQiim1YgMy7tAu5QGkeH-1">
                    <mxGeometry x="80" y="190" width="60" height="30" as="geometry"/>
                </mxCell>
                <mxCell id="BQiim1YgMy7tAu5QGkeH-11" value="Side C" style="text;html=1;strokeColor=none;fillColor=none;align=center;verticalAlign=middle;whiteSpace=wrap;rounded=0;" vertex="1" parent="BQiim1YgMy7tAu5QGkeH-1">
                    <mxGeometry x="80" y="250" width="60" height="30" as="geometry"/>
                </mxCell>
                <mxCell id="BQiim1YgMy7tAu5QGkeH-12" value="Side B" style="text;html=1;strokeColor=none;fillColor=none;align=center;verticalAlign=middle;whiteSpace=wrap;rounded=0;" vertex="1" parent="BQiim1YgMy7tAu5QGkeH-1">
                    <mxGeometry x="80" y="220" width="60" height="30" as="geometry"/>
                </mxCell>
                <mxCell id="BQiim1YgMy7tAu5QGkeH-13" value="" style="sketch=0;outlineConnect=0;fontColor=#232F3E;gradientColor=none;fillColor=#D45B07;strokeColor=none;dashed=0;verticalLabelPosition=bottom;verticalAlign=top;align=center;html=1;fontSize=12;fontStyle=0;aspect=fixed;pointerEvents=1;shape=mxgraph.aws4.container_registry_image;" vertex="1" parent="BQiim1YgMy7tAu5QGkeH-1">
                    <mxGeometry x="360" y="195" width="100" height="100" as="geometry"/>
                </mxCell>
                <mxCell id="Xlv-fPaN11Q5wbPhjMUE-0" value="You have an isosolise triangle!" style="text;html=1;strokeColor=none;fillColor=none;align=center;verticalAlign=middle;whiteSpace=wrap;rounded=0;" vertex="1" parent="BQiim1YgMy7tAu5QGkeH-1">
                    <mxGeometry x="90" y="340" width="200" height="30" as="geometry"/>
                </mxCell>
            </root>
        </mxGraphModel>
    </diagram>
    <diagram name="Copy of Copy of Page-1" id="Xi8aapRXcwqzIE-FDdJO">
        <mxGraphModel dx="520" dy="429" grid="1" gridSize="10" guides="1" tooltips="1" connect="1" arrows="1" fold="1" page="1" pageScale="1" pageWidth="850" pageHeight="1100" math="0" shadow="0">
            <root>
                <mxCell id="9QroYvZWICWRlmc9ZTmL-0"/>
                <mxCell id="9QroYvZWICWRlmc9ZTmL-1" parent="9QroYvZWICWRlmc9ZTmL-0"/>
                <mxCell id="9QroYvZWICWRlmc9ZTmL-2" value="" style="rounded=0;whiteSpace=wrap;html=1;" vertex="1" parent="9QroYvZWICWRlmc9ZTmL-1">
                    <mxGeometry x="80" y="80" width="400" height="300" as="geometry"/>
                </mxCell>
                <mxCell id="9QroYvZWICWRlmc9ZTmL-3" value="Fancy boarder&amp;nbsp;" style="rounded=0;whiteSpace=wrap;html=1;" vertex="1" parent="9QroYvZWICWRlmc9ZTmL-1">
                    <mxGeometry x="80" y="80" width="400" height="40" as="geometry"/>
                </mxCell>
                <mxCell id="9QroYvZWICWRlmc9ZTmL-4" value="Calculate" style="labelPosition=center;verticalLabelPosition=middle;align=center;html=1;shape=mxgraph.basic.button;dx=10;" vertex="1" parent="9QroYvZWICWRlmc9ZTmL-1">
                    <mxGeometry x="100" y="290" width="100" height="40" as="geometry"/>
                </mxCell>
                <mxCell id="9QroYvZWICWRlmc9ZTmL-5" value="Enter the following" style="text;html=1;strokeColor=none;fillColor=none;align=center;verticalAlign=middle;whiteSpace=wrap;rounded=0;" vertex="1" parent="9QroYvZWICWRlmc9ZTmL-1">
                    <mxGeometry x="90" y="160" width="120" height="30" as="geometry"/>
                </mxCell>
                <mxCell id="9QroYvZWICWRlmc9ZTmL-6" value="What type of Triangle?" style="text;strokeColor=none;fillColor=none;html=1;fontSize=24;fontStyle=1;verticalAlign=middle;align=center;" vertex="1" parent="9QroYvZWICWRlmc9ZTmL-1">
                    <mxGeometry x="170" y="130" width="100" height="40" as="geometry"/>
                </mxCell>
                <mxCell id="9QroYvZWICWRlmc9ZTmL-7" value="" style="html=1;shadow=0;dashed=0;shape=mxgraph.bootstrap.rrect;rSize=5;strokeColor=#CED4DA;strokeWidth=1;fillColor=#E9ECEF;fontColor=#505050;whiteSpace=wrap;align=left;verticalAlign=middle;spacingLeft=10;fontSize=14;" vertex="1" parent="9QroYvZWICWRlmc9ZTmL-1">
                    <mxGeometry x="90" y="210" width="140" height="10" as="geometry"/>
                </mxCell>
                <mxCell id="9QroYvZWICWRlmc9ZTmL-8" value="" style="html=1;shadow=0;dashed=0;shape=mxgraph.bootstrap.rrect;rSize=5;strokeColor=#CED4DA;strokeWidth=1;fillColor=#E9ECEF;fontColor=#505050;whiteSpace=wrap;align=left;verticalAlign=middle;spacingLeft=10;fontSize=14;" vertex="1" parent="9QroYvZWICWRlmc9ZTmL-1">
                    <mxGeometry x="90" y="240" width="140" height="10" as="geometry"/>
                </mxCell>
                <mxCell id="9QroYvZWICWRlmc9ZTmL-9" value="" style="html=1;shadow=0;dashed=0;shape=mxgraph.bootstrap.rrect;rSize=5;strokeColor=#CED4DA;strokeWidth=1;fillColor=#E9ECEF;fontColor=#505050;whiteSpace=wrap;align=left;verticalAlign=middle;spacingLeft=10;fontSize=14;" vertex="1" parent="9QroYvZWICWRlmc9ZTmL-1">
                    <mxGeometry x="90" y="270" width="140" height="10" as="geometry"/>
                </mxCell>
                <mxCell id="9QroYvZWICWRlmc9ZTmL-10" value="Side A" style="text;html=1;strokeColor=none;fillColor=none;align=center;verticalAlign=middle;whiteSpace=wrap;rounded=0;" vertex="1" parent="9QroYvZWICWRlmc9ZTmL-1">
                    <mxGeometry x="80" y="190" width="60" height="30" as="geometry"/>
                </mxCell>
                <mxCell id="9QroYvZWICWRlmc9ZTmL-11" value="Side C" style="text;html=1;strokeColor=none;fillColor=none;align=center;verticalAlign=middle;whiteSpace=wrap;rounded=0;" vertex="1" parent="9QroYvZWICWRlmc9ZTmL-1">
                    <mxGeometry x="80" y="250" width="60" height="30" as="geometry"/>
                </mxCell>
                <mxCell id="9QroYvZWICWRlmc9ZTmL-12" value="Side B" style="text;html=1;strokeColor=none;fillColor=none;align=center;verticalAlign=middle;whiteSpace=wrap;rounded=0;" vertex="1" parent="9QroYvZWICWRlmc9ZTmL-1">
                    <mxGeometry x="80" y="220" width="60" height="30" as="geometry"/>
                </mxCell>
                <mxCell id="9QroYvZWICWRlmc9ZTmL-13" value="" style="sketch=0;outlineConnect=0;fontColor=#232F3E;gradientColor=none;fillColor=#D45B07;strokeColor=none;dashed=0;verticalLabelPosition=bottom;verticalAlign=top;align=center;html=1;fontSize=12;fontStyle=0;aspect=fixed;pointerEvents=1;shape=mxgraph.aws4.container_registry_image;" vertex="1" parent="9QroYvZWICWRlmc9ZTmL-1">
                    <mxGeometry x="360" y="195" width="100" height="100" as="geometry"/>
                </mxCell>
                <mxCell id="uuljQqHQrjSzTfQ4e9za-0" value="You have an scalian triangle!" style="text;html=1;strokeColor=none;fillColor=none;align=center;verticalAlign=middle;whiteSpace=wrap;rounded=0;" vertex="1" parent="9QroYvZWICWRlmc9ZTmL-1">
                    <mxGeometry x="70" y="330" width="200" height="30" as="geometry"/>
                </mxCell>
            </root>
        </mxGraphModel>
    </diagram>
</mxfile>